<svg xmlns="http://www.w3.org/2000/svg" xmlns:svg="http://www.w3.org/2000/svg" id="svg349" width="15.688" height="15.688" version="1.1" viewBox="0 0 4.151 4.151"><metadata id="metadata346"/><g id="layer1" transform="translate(-28.918717,-80.323479)"><g id="g98" transform="matrix(0.26458333,0,0,0.26458333,27.841598,79.114862)"><g id="g102" style="fill-rule:evenodd"><path id="path104" d="M 0,0 H 18 V 18 H 0 Z" transform="matrix(0.87153,0,0,0.87153,4.071,4.568)" style="fill:none"/><path id="path106" d="M 12,3.5 A 1.505,1.505 0 0 0 10.494,2 H 4.506 C 3.676,2 3,2.674 3,3.506 v 7.988 C 3,12.326 3.671,12.997 4.5,13 V 3.5 Z M 6,6.506 C 6,5.674 6.676,5 7.506,5 h 5.988 C 14.326,5 15,5.672 15,6.506 v 7.988 C 15,15.326 14.324,16 13.494,16 H 7.506 A 1.505,1.505 0 0 1 6,14.494 Z M 7.5,6.5 h 6 v 8 h -6 z" transform="matrix(0.87153,0,0,0.87153,4.071,4.568)"/></g></g></g></svg>